<?xml version="1.0" encoding="UTF-8"?>
<svg id="Layer_2" data-name="Layer 2" xmlns="http://www.w3.org/2000/svg" viewBox="0 0 250.25 54.33">
  <defs>
    <style>
      .cls-1 {
        letter-spacing: .17em;
      }

      .cls-2 {
        fill: #d78d28;
      }

      .cls-3 {
        letter-spacing: .18em;
      }

      .cls-4 {
        letter-spacing: .18em;
      }

      .cls-5 {
        fill: #fff;
        font-family: AcuminConcept-Bold, 'Acumin Variable Concept';
        font-size: 10px;
        font-variation-settings: 'wght' 700, 'wdth' 100, 'slnt' 0;
      }

      .cls-6 {
        letter-spacing: .21em;
      }

      .cls-7 {
        letter-spacing: .19em;
      }

      .cls-8 {
        letter-spacing: .18em;
      }

      .cls-9 {
        letter-spacing: .18em;
      }

      .cls-10 {
        letter-spacing: .19em;
      }

      .cls-11 {
        letter-spacing: .19em;
      }

      .cls-12 {
        letter-spacing: .18em;
      }

      .cls-13 {
        letter-spacing: .19em;
      }

      .cls-14 {
        letter-spacing: .19em;
      }
    </style>
  </defs>
  <g id="Layer_1-2" data-name="Layer 1">
    <g>
      <path class="cls-2" d="M7.33,12.9H0v-4.28H19.86v4.28h-7.31v19.86H7.33V12.9Z"/>
      <path class="cls-2" d="M39.7,22.34h-11.54v6.13h12.73l-.62,4.28H23.09V8.62h17.11v4.28h-12.05v5.17h11.54v4.28Z"/>
      <path class="cls-2" d="M59.18,32.75l-5.17-8.5h-.03l-5.28,8.5h-5.63l8.03-12.15-7.8-11.98h6.06l4.87,8h.04l5.05-8h5.53l-7.77,11.5,8.14,12.63h-6.03Z"/>
      <path class="cls-2" d="M74.45,27.18l-1.88,5.57h-5.13l8.19-24.13h6.55l8.55,24.13h-5.49l-1.98-5.57h-8.82Zm7.69-4.28c-1.71-5.09-2.81-8.35-3.39-10.52h-.04c-.59,2.38-1.8,6.17-3.17,10.52h6.6Z"/>
      <path class="cls-2" d="M97.75,25.68c.55,2.42,2.29,3.49,5.08,3.49s3.98-1.1,3.98-2.87c0-1.96-1.16-2.82-5.29-3.78-6.57-1.54-8.19-3.93-8.19-7.19,0-4.21,3.15-7.06,8.86-7.06,6.41,0,8.96,3.44,9.31,6.97h-5.26c-.25-1.49-1.07-3.1-4.18-3.1-2.12,0-3.4,.88-3.4,2.59s1.02,2.36,4.92,3.26c7.02,1.65,8.56,4.26,8.56,7.67,0,4.41-3.33,7.43-9.71,7.43s-9.35-3.02-9.93-7.42h5.26Z"/>
    </g>
    <g>
      <path class="cls-2" d="M174.09,31.97v-5.32h-10.71v-4.49l9.89-13.87h5.61v14.19h2.85l-.47,4.17h-2.38v5.32h-4.78Zm0-13.71c0-2.57,0-4,.1-5.49-.94,1.98-4.02,6.49-6.25,9.7h6.15v-4.22Z"/>
      <path class="cls-2" d="M204.65,19.98c0,6.51-2.07,12.42-9.1,12.42s-9.1-5.71-9.1-12.27,2.38-12.27,9.21-12.27,8.99,5.4,8.99,12.13Zm-12.89,.09c0,4.35,.5,8.23,3.85,8.23s3.7-3.62,3.7-8.29-.56-8.05-3.65-8.05-3.9,2.98-3.9,8.11Z"/>
      <path class="cls-2" d="M227.95,19.98c0,6.51-2.07,12.42-9.1,12.42s-9.1-5.71-9.1-12.27,2.38-12.27,9.21-12.27,8.99,5.4,8.99,12.13Zm-12.89,.09c0,4.35,.5,8.23,3.85,8.23s3.7-3.62,3.7-8.29-.56-8.05-3.65-8.05-3.9,2.98-3.9,8.11Z"/>
      <path class="cls-2" d="M250.25,19.98c0,6.51-2.07,12.42-9.1,12.42s-9.1-5.71-9.1-12.27,2.38-12.27,9.21-12.27,8.99,5.4,8.99,12.13Zm-12.89,.09c0,4.35,.5,8.23,3.85,8.23s3.7-3.62,3.7-8.29-.56-8.05-3.65-8.05-3.9,2.98-3.9,8.11Z"/>
    </g>
    <text class="cls-5" transform="translate(27.87 51.71)"><tspan class="cls-7" x="0" y="0">F</tspan><tspan class="cls-8" x="7.76" y="0">I</tspan><tspan class="cls-12" x="12.73" y="0">G</tspan><tspan class="cls-14" x="22.09" y="0">H</tspan><tspan class="cls-8" x="31.43" y="0">T</tspan><tspan class="cls-12" x="39.15" y="0">I</tspan><tspan class="cls-9" x="44.13" y="0">NG </tspan><tspan class="cls-1" x="67.13" y="0">C</tspan><tspan class="cls-3" x="75.97" y="0">A</tspan><tspan class="cls-9" x="84.64" y="0">N</tspan><tspan class="cls-1" x="94.03" y="0">C</tspan><tspan class="cls-4" x="102.87" y="0">E</tspan><tspan class="cls-8" x="110.86" y="0">R </tspan><tspan class="cls-6" x="123.58" y="0">E</tspan><tspan class="cls-11" x="131.85" y="0">V</tspan><tspan class="cls-4" x="140.4" y="0">E</tspan><tspan class="cls-13" x="148.39" y="0">R</tspan><tspan class="cls-8" x="156.96" y="0">Y </tspan><tspan class="cls-10" x="169.25" y="0">MI</tspan><tspan class="cls-3" x="184.94" y="0">L</tspan><tspan class="cls-9" x="192.59" y="0">E</tspan></text>
    <path class="cls-2" d="M141.54,1.72c9.84,4.07,7.33,6.06,10.41,6.49s3.57-3.45-.18-6.73c-3.5-3.07-12.14-.55-10.23,.24Z"/>
    <path class="cls-2" d="M153.99,15.6c-4.15-2.84-12.31-11.78-17.3-7.89-1.46,1.37-2.35,3.24-2.38,5.47-.04,1.29,.2,2.7,.71,4.3l-.16,.16c-5.76-2.09-6.56-11.46-.85-14.3,8.04-3.72,17.72,5.48,19.98,12.26h0Z"/>
    <path class="cls-2" d="M136.47,13.81c4.46,.04,7.69,4.89,4.45,8.68-2.32,2.77-5.94,3.33-9.12,3.86-2.03,.32-4.03,.59-6.06,.6,3.37-1.54,7.4-3.07,10.16-5.6,3.54-2.75,2-3.82,.42-7.32,0,0,.14-.22,.14-.22h0Z"/>
    <path class="cls-2" d="M249.21,36.12v3h-98.98s-2.28,.06-2.28,.06c0,0,1.52-.78,1.52-.88,1.09-.75,4.69-3.4,5.67-6.07,1.79-4.89,.13-10.01-3.7-11.41-.67-.24-1.35-.36-2.04-.36-3.29,0-6.67,2.64-8.15,6.69-1.2,3.29-.85,6.68,.68,8.97,.02,.04,.05,.07,.07,.11,0,.02,.02,.03,.03,.04,.57,.81,1.21,1.7,2.06,2.16,0,.04,1.05,.69,1.11,.69h-17.42s-2.28,.06-2.28,.06c0,0,1.52-.78,1.52-.88,1.09-.75,4.69-3.4,5.67-6.07,1.79-4.89,.13-10.01-3.7-11.41-.67-.24-1.35-.36-2.04-.36-3.29,0-6.67,2.64-8.15,6.69-1.2,3.29-.85,6.68,.68,8.97,.02,.04,.05,.07,.07,.11,.01,.02,.02,.03,.03,.04,.57,.81,1.2,1.7,2.05,2.16,0,.04,1.05,.69,1.12,.69H5.3v-3H117.21c-1.33-2.71-1.54-6.24-.29-9.66,2.17-5.93,7.89-9.3,12.75-7.52,4.87,1.78,7.06,8.05,4.89,13.98-.43,1.17-1,2.25-1.69,3.2h6.79c-1.33-2.71-1.54-6.24-.29-9.66,2.17-5.93,7.89-9.3,12.75-7.52,4.87,1.78,7.06,8.05,4.89,13.98-.43,1.17-1,2.25-1.69,3.2h93.89Z"/>
    <path class="cls-2" d="M119.55,36.23s-.05-.07-.07-.11h.01s.04,.08,.06,.11Z"/>
  </g>
</svg>